<svg id="图标_1" data-name="图标 1" xmlns="http://www.w3.org/2000/svg" viewBox="0 0 72 72"><defs><style>.cls-1{fill:none;}</style></defs><title>1</title><g id="保龄球"><path class="cls-1" d="M41.65,44A18.84,18.84,0,1,0,43,51,18.94,18.94,0,0,0,41.65,44ZM20.5,41.5a3,3,0,1,1,3-3A3,3,0,0,1,20.5,41.5Z"/><path class="cls-1" d="M42.77,60.37a26,26,0,0,0,4.49,9.51H61.35c3.55-4.41,5.91-12,5.91-20.73C67.26,41,65.2,33.84,62,29.34H46.59a29.48,29.48,0,0,0-4.42,11.17,20.86,20.86,0,0,1,.6,19.86Z"/><circle class="cls-1" cx="20.5" cy="38.5" r="1"/><path d="M50.48,19.13,47.93,8.64A6.09,6.09,0,0,1,54,2.55a6.66,6.66,0,0,1,6.66,6.66l-2.55,9.92h2.55l2.55-10A9.14,9.14,0,0,0,54.1,0a8.72,8.72,0,0,0-8.72,8.72l2.55,10.41Z"/><rect x="47.93" y="21.68" width="12.75" height="2.55"/><path d="M62.93,26.79H45.68a28.89,28.89,0,0,0-5.29,11.1,21,21,0,0,1,1.79,2.62,29.48,29.48,0,0,1,4.42-11.17H62c3.17,4.5,5.23,11.69,5.23,19.82,0,8.69-2.35,16.32-5.91,20.73H47.26a26,26,0,0,1-4.49-9.51,21,21,0,0,1-1.59,2.68A26.2,26.2,0,0,0,46.09,72H62.52c4.26-4.81,7.09-13.24,7.09-22.84C69.61,39.86,67,31.66,62.93,26.79Z"/><path d="M45,51a21.21,21.21,0,1,0-2.23,9.37A20.87,20.87,0,0,0,45,51Zm-4.58,9.53A19,19,0,1,1,42,57,19,19,0,0,1,40.42,60.53Z"/><path d="M20.5,35.5a3,3,0,1,0,3,3A3,3,0,0,0,20.5,35.5Zm0,4a1,1,0,1,1,1-1A1,1,0,0,1,20.5,39.5Z"/></g></svg>