<svg id="图标_1" data-name="图标 1" xmlns="http://www.w3.org/2000/svg" viewBox="0 0 72 72"><title>1</title><g id="表演"><path d="M48.94,38.23A12.15,12.15,0,0,0,49,37a12,12,0,0,0-9-11.61V12h2V8h2V6H42V4h2V2H42V0H32V2H30V4h2V6H30V8h2v4h2V25.39A12,12,0,0,0,25,37a12.15,12.15,0,0,0,.06,1.23,19,19,0,1,0,23.88,0ZM34,2h6v8H34Zm2,23V12h2V25Zm1,45a17,17,0,0,1-9.77-30.9L27,36.86a10,10,0,0,1,20,0l-.22,2.24A17,17,0,0,1,37,70Z"/><rect x="32" y="62" width="10" height="2"/><path d="M37,33a5,5,0,1,0,5,5A5,5,0,0,0,37,33Zm0,8.33A3.33,3.33,0,1,1,40.33,38,3.33,3.33,0,0,1,37,41.33Z"/></g></svg>