<svg id="图标_1" data-name="图标 1" xmlns="http://www.w3.org/2000/svg" viewBox="0 0 72 72"><defs><style>.cls-1{fill:none;}</style></defs><title>1</title><g id="订票服务"><path class="cls-1" d="M18.61,9.55a6.3,6.3,0,0,1-8.7,8.7l-5.2,5.2,42,42,5.11-5.11a6.3,6.3,0,0,1,8.88-8.88l5.11-5.11-42-42ZM42.27,26.64l1.27,1.27L41,30.46l-1.27-1.27Zm-4.46,4.46,1.27,1.27-6.37,6.37-1.27-1.27Zm-8.28,8.28,1.27,1.27-2.55,2.55L27,41.92Z"/><path d="M23.81,1.81,17.43,8.19,16.14,9.48a4.41,4.41,0,0,1,.35.29,4.49,4.49,0,0,1-5.25,7.16l-1.4-1.14L8.55,17.07,2.16,23.45,46.73,68l6.47-6.47,1.33-1.33a4.5,4.5,0,1,1,6-6l1.33-1.33,6.47-6.47ZM60.72,51.48a6.3,6.3,0,0,0-8.88,8.88l-5.11,5.11-42-42,5.2-5.2a6.3,6.3,0,0,0,8.7-8.7l5.2-5.2,42,42Z"/><rect x="39.83" y="27.65" width="3.6" height="1.8" transform="translate(-7.99 37.8) rotate(-45)"/><rect x="30.77" y="34.01" width="9" height="1.8" transform="translate(-14.36 35.16) rotate(-45)"/><rect x="27.1" y="40.38" width="3.6" height="1.8" transform="translate(-20.72 32.53) rotate(-45)"/></g></svg>