<svg xmlns="http://www.w3.org/2000/svg" viewBox="0 0 68.2 68.2"><title>duogongnengting</title><g id="图层_2" data-name="图层 2"><g id="图标_1" data-name="图标 1"><g id="多功能厅"><path d="M68.2,40V28H61.5a26.24,26.24,0,0,0-3.8-9.1l4.7-4.7L53.9,5.7l-4.7,4.7a26.24,26.24,0,0,0-9.1-3.8V0h-12V6.7A26.24,26.24,0,0,0,19,10.5L14.3,5.8,5.8,14.3,10.5,19a26.24,26.24,0,0,0-3.8,9.1H0v12H6.7a26.24,26.24,0,0,0,3.8,9.1L5.8,53.9l8.5,8.5L19,57.7a26.24,26.24,0,0,0,9.1,3.8v6.7h12V61.5a26.24,26.24,0,0,0,9.1-3.8l4.7,4.7,8.5-8.5-4.7-4.7a26.24,26.24,0,0,0,3.8-9.1l6.7-.1Zm-8.3-2a14.15,14.15,0,0,1-.4,2,23.2,23.2,0,0,1-3.2,7.6c-.4.6-.7,1.1-1.1,1.7l1.4,1.4,3,3-5.7,5.7-3-3L49.5,55a9.91,9.91,0,0,1-1.7,1.1,28.47,28.47,0,0,1-7.6,3.2,14.16,14.16,0,0,1-2,.4V66h-8V59.7a14.15,14.15,0,0,1-2-.4,23.2,23.2,0,0,1-7.6-3.2c-.6-.4-1.1-.7-1.7-1.1l-1.4,1.4-3,3L8.8,53.7l3-3,1.4-1.4a9.9,9.9,0,0,1-1.1-1.7A28.47,28.47,0,0,1,8.9,40a14.16,14.16,0,0,1-.4-2H2.2V30H8.5a14.15,14.15,0,0,1,.4-2,23.2,23.2,0,0,1,3.2-7.6c.4-.6.7-1.1,1.1-1.7l-1.4-1.4-3-3,5.7-5.7,3,3L18.9,13a9.91,9.91,0,0,1,1.7-1.1,28.47,28.47,0,0,1,7.6-3.2,14.16,14.16,0,0,1,2-.4V2h8V8.3a14.15,14.15,0,0,1,2,.4,23.2,23.2,0,0,1,7.6,3.2c.6.4,1.1.7,1.7,1.1l1.4-1.4,3-3,5.7,5.7-3,3-1.4,1.4a9.9,9.9,0,0,1,1.1,1.7A28.47,28.47,0,0,1,59.5,28a14.16,14.16,0,0,1,.4,2h6.3v8H59.9Z"/><path d="M34.2,22a12,12,0,1,0,12,12A12,12,0,0,0,34.2,22Zm0,22a10,10,0,1,1,10-10A10,10,0,0,1,34.2,44Z"/></g></g></g></svg>