<svg id="图标_1" data-name="图标 1" xmlns="http://www.w3.org/2000/svg" viewBox="0 0 72 72"><defs><style>.cls-1{fill:none;}</style></defs><title>1</title><g id="儿童看护"><rect class="cls-1" x="33" y="2" width="6" height="10"/><polygon class="cls-1" points="31 14 20 14 20 22 52 22 52 14 41 14 31 14"/><polygon points="52 38 36 38 36 40 52 40 52 46 36 46 36 48 52 48 52 54 36 54 36 56 52 56 52 70 20 70 20 26 18 26 18 72 54 72 54 26 52 26 52 38"/><path d="M41,12V0H31V12H18V24H54V12ZM33,2h6V12H33ZM52,22H20V14H52Z"/></g></svg>