<svg id="图标_1" data-name="图标 1" xmlns="http://www.w3.org/2000/svg" viewBox="0 0 72 72"><title>1</title><g id="儿童乐园"><path d="M56.93,15.68A7,7,0,1,0,45,8.43a30.06,30.06,0,0,0-18.33,0,7,7,0,1,0-11.93,7.24,30,30,0,1,0,42.19,0ZM35.83,65a28,28,0,1,1,28-28A28,28,0,0,1,35.83,65Z"/><circle cx="23" cy="27" r="4"/><circle cx="49" cy="27" r="4"/><path d="M37.76,51.13a6.87,6.87,0,0,1,0-6.35,3,3,0,1,0-2.75-.25,6.88,6.88,0,0,1,.15,6.69A3.16,3.16,0,0,0,32.67,54c0,1.66,1.79,3,4,3s4-1.34,4-3C40.67,52.63,39.43,51.48,37.76,51.13Z"/></g></svg>