<svg id="图标_1" data-name="图标 1" xmlns="http://www.w3.org/2000/svg" viewBox="0 0 72 72"><defs><style>.cls-1{fill:none;}.cls-2{fill:#020202;}</style></defs><title>1</title><g id="公寓房"><polygon class="cls-1" points="46 20 44 20 44 28 44 48 46 48 46 20"/><rect class="cls-1" x="40" y="34" width="2" height="2"/><rect class="cls-1" x="40" y="30" width="2" height="2"/><rect class="cls-1" x="40" y="38" width="2" height="10"/><polygon class="cls-1" points="38 28 38 14 36 14 36 28 34 28 34 14 32 14 32 22 32 48 38 48 38 28"/><polygon class="cls-1" points="53.03 48 48 30.45 48 48 53.03 48"/><polygon class="cls-1" points="57.2 48 50.65 25.19 48.73 25.74 55.11 48 57.2 48"/><rect class="cls-1" x="28" y="24" width="2" height="24"/><polygon class="cls-1" points="53.61 50 48 50 44 50 42 50 40 50 38 50 32 50 30 50 28 50 26 50 18 50 16 50 12 50 2 50 2 52 70 52 70 50 58.45 50 53.61 50"/><path class="cls-1" d="M26,22V20H18V48h8ZM24,32H20V30h4Zm0-4H20V26h4Zm0-4H20V22h4Z"/><rect class="cls-1" x="14" y="28" width="2" height="20"/><path class="cls-2" d="M59.27,48,52,22.72l-4,1.15V18H42V28H40V12H30V22H28V18H16v8H12V48H0v6H72V48ZM50.65,25.19,57.19,48H55.11L48.73,25.74ZM53,48H48V30.45ZM44,28V20h2V48H44Zm-4,2h2v2H40Zm0,4h2v2H40Zm0,4h2V48H40ZM32,22V14h2V28h2V14h2V48H32Zm-4,2h2V48H28ZM18,26V20h8V48H18Zm-4,2h2V48H14ZM70,52H2V50H70Z"/><rect class="cls-2" x="20" y="22" width="4" height="2"/><rect class="cls-2" x="20" y="26" width="4" height="2"/><rect class="cls-2" x="20" y="30" width="4" height="2"/></g></svg>