<svg id="图标_1" data-name="图标 1" xmlns="http://www.w3.org/2000/svg" viewBox="0 0 72 72"><title>1</title><g id="果汁"><path d="M50,33V16a5,5,0,0,0-10,0V35a4,4,0,0,1-8,0V29a6,6,0,0,0-12,0v6l2,37H48Zm-2-3v3L46,70H24L22,35V29a4,4,0,0,1,8,0v6a6,6,0,0,0,12,0V16a3,3,0,0,1,6,0Z"/><path d="M24,12a4,4,0,1,0-4-4A4,4,0,0,0,24,12Zm0-6a2,2,0,1,1-2,2A2,2,0,0,1,24,6Z"/><path d="M34,21a3,3,0,1,0-3-3A3,3,0,0,0,34,21Zm0-4a1,1,0,1,1-1,1A1,1,0,0,1,34,17Z"/><path d="M52,0H16V2l2,70H52L54,2V0ZM50,70H20L18,2H52Z"/></g></svg>