<svg id="图标_1" data-name="图标 1" xmlns="http://www.w3.org/2000/svg" viewBox="0 0 72 72"><defs><style>.cls-1{fill:none;}</style></defs><title>1</title><g id="中式酒水"><path class="cls-1" d="M27.69,27.42c.75,1.61,2.82,2.34,5.26,2.16a11.82,11.82,0,0,0,3-.63,13.19,13.19,0,0,0,1.27-.51l2.74-7.52-4-1.46L33,18.4,21.15,14.09,17.3,24.67C21.8,23.21,26.24,24.3,27.69,27.42Z"/><path class="cls-1" d="M36.21,31.19l-.27-.08-.27.08a13,13,0,0,1-2,.39c-3.52.39-6.63-.8-7.8-3.31s-5.51-2.89-9.52-1l-1.13,3.1c-2,5.56.55,11.59,5.74,13.48S32,42.73,34,37.18l.84-2.32,1.06-2.92Z"/><path class="cls-1" d="M38.92,29.58c2.44.18,4.51-.55,5.26-2.16,1.46-3.13,5.9-4.21,10.39-2.75L50.73,14.09,38.86,18.4l3.65,1.33Z"/><path class="cls-1" d="M56.64,30.34l-1.13-3.1c-4-1.87-8.35-1.48-9.52,1S41.71,32,38.2,31.58L37,34.86l.84,2.32c2,5.56,7.87,8.53,13.06,6.64S58.66,35.9,56.64,30.34Z"/><path d="M67.83,61.07l-8.46,3.08L52.51,45.31a12.39,12.39,0,0,0,6-15.58l-6.62-18.2-16,5.82L20,11.52l-6.62,18.2a12.39,12.39,0,0,0,6,15.58L12.51,64.15,4.05,61.07,3.37,63l18.79,6.84.68-1.88-8.46-3.08L21.25,46a12.39,12.39,0,0,0,14.64-8.06l.05-.15.05.15A12.39,12.39,0,0,0,50.63,46l6.86,18.84L49,67.91l.68,1.88L68.51,63Zm-17.1-47,3.85,10.58c-4.49-1.46-8.94-.37-10.39,2.75-.75,1.61-2.82,2.34-5.26,2.16l3.59-9.85L38.86,18.4Zm-29.57,0L33,18.4l2.92,1.06,4,1.46-2.74,7.52a13.19,13.19,0,0,1-1.27.51,11.82,11.82,0,0,1-3,.63c-2.44.18-4.51-.55-5.26-2.16-1.46-3.13-5.9-4.21-10.39-2.75ZM34.88,34.86,34,37.18c-2,5.56-7.87,8.53-13.06,6.64s-7.76-7.92-5.74-13.48l1.13-3.1c4-1.87,8.35-1.48,9.52,1s4.29,3.71,7.8,3.31a13,13,0,0,0,2-.39l.27-.08.27.08-.27.74Zm3,2.32L37,34.86l1.19-3.28c3.51.39,6.63-.8,7.8-3.31s5.51-2.89,9.52-1l1.13,3.1c2,5.56-.55,11.59-5.74,13.48S39.87,42.73,37.85,37.18Z"/></g></svg>