<svg id="图标_1" data-name="图标 1" xmlns="http://www.w3.org/2000/svg" viewBox="0 0 72 72"><title>1</title><path id="会客厅" d="M18,30H70V28H66a10,10,0,0,0-6.56-9.38,5,5,0,1,0-6.87,0A10,10,0,0,0,46,28H42a10,10,0,0,0-6.56-9.38,5,5,0,1,0-6.87,0A10,10,0,0,0,22,28H18a16,16,0,0,0,0,32H70V58H66a10,10,0,0,0-6.56-9.38,5,5,0,1,0-6.87,0A10,10,0,0,0,46,58H42a10,10,0,0,0-6.56-9.38,5,5,0,1,0-6.87,0A10,10,0,0,0,22,58H18a14,14,0,0,1,0-28ZM56,12a3,3,0,1,1-3,3A3,3,0,0,1,56,12Zm0,8a8,8,0,0,1,8,8H48A8,8,0,0,1,56,20ZM32,12a3,3,0,1,1-3,3A3,3,0,0,1,32,12Zm0,8a8,8,0,0,1,8,8H24A8,8,0,0,1,32,20ZM56,42a3,3,0,1,1-3,3A3,3,0,0,1,56,42Zm0,8a8,8,0,0,1,8,8H48A8,8,0,0,1,56,50ZM32,42a3,3,0,1,1-3,3A3,3,0,0,1,32,42Zm0,8a8,8,0,0,1,8,8H24A8,8,0,0,1,32,50Z"/></svg>