<svg id="图标_1" data-name="图标 1" xmlns="http://www.w3.org/2000/svg" viewBox="0 0 72 72"><title>1</title><g id="会议室"><path d="M2,4v8H6V48H35V66H20v2H52V66H37V48H66V12h4V4ZM64,46H8V12H64Zm4-36H4V6H68Z"/><path d="M19,40a3,3,0,0,0,2.7-4.29L34,23.43A3.91,3.91,0,0,0,38.6,23l9,9A4,4,0,0,0,47,34a4,4,0,1,0,4-4,4,4,0,0,0-2,.57l-9.23-9.23a4,4,0,1,0-7.19.68L20.29,34.3A3,3,0,1,0,19,40Zm32-8a2,2,0,1,1-2,2A2,2,0,0,1,51,32ZM36,18a2,2,0,1,1-1.18,3.61l-.43-.43A2,2,0,0,1,36,18ZM19,36a1,1,0,1,1-1,1A1,1,0,0,1,19,36Z"/></g></svg>