<svg id="图标_1" data-name="图标 1" xmlns="http://www.w3.org/2000/svg" viewBox="0 0 72 72"><defs><style>.cls-1{fill:none;}</style></defs><title>1</title><g id="健身馆"><path class="cls-1" d="M10,38c-.54,0-1.07,0-1.6.08l-5.78,18,27.32,3.12c0-.4.06-.79.06-1.19A20,20,0,0,0,10,38Z"/><polygon points="2 64 34 68 34 66 2 62 2 64"/><path d="M31.95,59.42C32,59,32,58.48,32,58A22,22,0,0,0,10,36l-.94,0L19.36,4H40V2H18L7,36.21l-.69,2.15L.65,56,0,58l29.71,3.3,2,.22L72,66V64ZM2.62,56.07l5.78-18C8.93,38,9.46,38,10,38A20,20,0,0,1,30,58c0,.4,0,.8-.06,1.19Z"/></g></svg>