<svg id="图标_1" data-name="图标 1" xmlns="http://www.w3.org/2000/svg" viewBox="0 0 72 72"><defs><style>.cls-1{fill:none;}.cls-2{fill:#020202;}</style></defs><title>1</title><g id="家庭房"><circle class="cls-1" cx="22" cy="18" r="2"/><circle class="cls-1" cx="50" cy="18" r="2"/><path class="cls-1" d="M22,34a4,4,0,1,0,4,4A4,4,0,0,0,22,34Zm0,6a2,2,0,1,1,2-2A2,2,0,0,1,22,40Z"/><path class="cls-1" d="M30,2H14V70H30ZM22,14a4,4,0,1,1-4,4A4,4,0,0,1,22,14Zm0,46a2,2,0,1,1,2-2A2,2,0,0,1,22,60Zm0-16a6,6,0,1,1,6-6A6,6,0,0,1,22,44Z"/><path class="cls-1" d="M42,70H58V2H42Zm8-10a2,2,0,1,1,2-2A2,2,0,0,1,50,60Zm0-46a4,4,0,1,1-4,4A4,4,0,0,1,50,14Zm0,18a6,6,0,1,1-6,6A6,6,0,0,1,50,32Z"/><path class="cls-1" d="M50,42a4,4,0,1,0-4-4A4,4,0,0,0,50,42Zm0-6a2,2,0,1,1-2,2A2,2,0,0,1,50,36Z"/><path class="cls-2" d="M12,72H32V0H12ZM14,2H30V70H14Z"/><path class="cls-2" d="M22,22a4,4,0,1,0-4-4A4,4,0,0,0,22,22Zm0-6a2,2,0,1,1-2,2A2,2,0,0,1,22,16Z"/><path class="cls-2" d="M22,32a6,6,0,1,0,6,6A6,6,0,0,0,22,32Zm0,10a4,4,0,1,1,4-4A4,4,0,0,1,22,42Z"/><circle class="cls-2" cx="22" cy="38" r="2"/><circle class="cls-2" cx="22" cy="58" r="2"/><path class="cls-2" d="M40,0V72H60V0ZM58,70H42V2H58Z"/><path class="cls-2" d="M50,22a4,4,0,1,0-4-4A4,4,0,0,0,50,22Zm0-6a2,2,0,1,1-2,2A2,2,0,0,1,50,16Z"/><path class="cls-2" d="M50,44a6,6,0,1,0-6-6A6,6,0,0,0,50,44Zm0-10a4,4,0,1,1-4,4A4,4,0,0,1,50,34Z"/><circle class="cls-2" cx="50" cy="38" r="2"/><circle class="cls-2" cx="50" cy="58" r="2"/></g></svg>