<svg id="图标_1" data-name="图标 1" xmlns="http://www.w3.org/2000/svg" viewBox="0 0 72 72"><title>1</title><g id="接送机服务"><rect x="33.13" y="28" width="6" height="2"/><path d="M16,38a5,5,0,0,0,4.9-4h5.23c0,7.18,4.48,13,10,13s10-5.82,10-13h5a5,5,0,0,0,9.8,0H67V32H46c-.7-5.86-4.4-10.42-9-10.94V18h2V16H37V14H35v2H33v2h2v3.09c-4.48.65-8.06,5.16-8.74,10.91H5v2h6.1A5,5,0,0,0,16,38Zm42.82-4a3,3,0,0,1-5.63,0ZM36.13,45a6.6,6.6,0,0,1-4.59-2h.24a5.41,5.41,0,0,1,4.35-2.5A5.41,5.41,0,0,1,40.47,43h.24A6.6,6.6,0,0,1,36.13,45Zm0-22c4.42,0,8,4.92,8,11a13.37,13.37,0,0,1-2.23,7.61,7.31,7.31,0,0,0-5.77-3.11,7.31,7.31,0,0,0-5.77,3.11A13.37,13.37,0,0,1,28.13,34C28.13,27.92,31.71,23,36.13,23ZM18.82,34a3,3,0,0,1-5.63,0Z"/><rect x="24" y="54" width="24" height="2"/><rect x="16" y="58" width="40" height="2"/><rect x="2" y="62" width="68" height="2"/></g></svg>