<svg xmlns="http://www.w3.org/2000/svg" viewBox="0 0 56.7 71.8"><defs><style>.cls-1{fill:none;}.cls-2{fill:#020202;}</style></defs><title>jiuba</title><g id="图层_2" data-name="图层 2"><g id="图标_1" data-name="图标 1"><g id="酒水"><circle class="cls-1" cx="16.9" cy="38.8" r="4"/><circle class="cls-1" cx="30.9" cy="50.2" r="2"/><path class="cls-1" d="M24.9,20h12a9,9,0,0,0,0-18,8.58,8.58,0,0,0-4.3,1.1,6.57,6.57,0,0,0-1.7,1.2,6.57,6.57,0,0,0-1.7-1.2,9.1,9.1,0,0,0-9.9.8,9.27,9.27,0,0,0-1.4,1.4,9.27,9.27,0,0,0-1.4-1.4A9,9,0,1,0,10.9,20h14Z"/><circle class="cls-1" cx="17.2" cy="60.5" r="1"/><path class="cls-1" d="M30.9,22H6.6V70h34V22H30.9ZM17.2,63.5a3,3,0,1,1,3-3A2.95,2.95,0,0,1,17.2,63.5Zm-.3-18.7a6,6,0,1,1,6-6A6,6,0,0,1,16.9,44.8ZM36.8,64.3a2,2,0,1,1-2.8.5A2,2,0,0,1,36.8,64.3ZM34.9,50.2a4,4,0,1,1-4-4A4,4,0,0,1,34.9,50.2Z"/><rect class="cls-1" x="42.7" y="30" width="12" height="26"/><path d="M24.9,22H37a11.15,11.15,0,0,1-6-1.8A11.49,11.49,0,0,1,24.9,22Z"/><path d="M42.7,28V20.3a11.2,11.2,0,0,1-5.8,1.6h3.8v48H6.7v-48h4.2a10.22,10.22,0,0,1-6.2-2V71.8h38v-14h14v-30h-14V28Zm12,28h-12V30h12Z"/><path d="M14.5,22H25a10.51,10.51,0,0,1-6.3-2H17.3A10.73,10.73,0,0,1,11,22h3.5Z"/><circle cx="35.73" cy="65.95" r="2" transform="translate(-38.9 58.39) rotate(-55.77)"/><path d="M17.2,57.5a3,3,0,1,0,3,3A2.95,2.95,0,0,0,17.2,57.5Zm0,4a1,1,0,1,1,1-1A.94.94,0,0,1,17.2,61.5Z"/><path d="M26.9,50.2a4,4,0,1,0,4-4A4,4,0,0,0,26.9,50.2Zm6,0a2,2,0,1,1-2-2A2,2,0,0,1,32.9,50.2Z"/><path d="M16.9,32.8a6,6,0,1,0,6,6A6,6,0,0,0,16.9,32.8Zm0,10a4,4,0,1,1,4-4A4,4,0,0,1,16.9,42.8Z"/><path class="cls-2" d="M17.3,20H11A9,9,0,0,1,11,2a9.23,9.23,0,0,1,5.6,1.9A9.27,9.27,0,0,1,18,5.3a9.27,9.27,0,0,1,1.4-1.4A9,9,0,0,1,25,2a8.58,8.58,0,0,1,4.3,1.1A6.57,6.57,0,0,1,31,4.3a6.57,6.57,0,0,1,1.7-1.2A9.16,9.16,0,0,1,37,2a9,9,0,0,1,0,18H18.7A10.73,10.73,0,0,0,25,22a11.15,11.15,0,0,0,6-1.8A11.15,11.15,0,0,0,37,22a11.47,11.47,0,0,0,5.8-1.6A11,11,0,0,0,37,0a11.15,11.15,0,0,0-6,1.8A11.15,11.15,0,0,0,25,0a10.7,10.7,0,0,0-7,2.5A10.7,10.7,0,0,0,11,0,11,11,0,0,0,0,11a10.69,10.69,0,0,0,4.8,9A11.16,11.16,0,0,0,11,22,10.73,10.73,0,0,0,17.3,20Z"/></g></g></g></svg>