<svg id="图标_1" data-name="图标 1" xmlns="http://www.w3.org/2000/svg" viewBox="0 0 72 72"><defs><style>.cls-1{fill:none;}.cls-2{fill:#020202;}</style></defs><title>1</title><g id="酒水"><circle class="cls-1" cx="22.25" cy="38.75" r="4"/><circle class="cls-1" cx="36.25" cy="50.25" r="2"/><path class="cls-1" d="M30.25,20h12a9,9,0,1,0-6-15.69,9,9,0,0,0-13,1,9,9,0,0,0-1.43-1.41A9,9,0,1,0,16.25,20h14Z"/><circle class="cls-1" cx="22.5" cy="60.5" r="1"/><path class="cls-1" d="M36.2,22H12V70H46V22H36.2ZM22.5,63.5a3,3,0,1,1,3-3A3,3,0,0,1,22.5,63.5Zm-.25-18.75a6,6,0,1,1,6-6A6,6,0,0,1,22.25,44.75Zm19.88,19.6a2,2,0,1,1-2.78.53A2,2,0,0,1,42.13,64.35Zm-1.87-14.1a4,4,0,1,1-4-4A4,4,0,0,1,40.25,50.25Z"/><rect class="cls-1" x="48" y="30" width="12" height="26"/><path d="M30.25,22h12a10.94,10.94,0,0,1-6-1.79A10.94,10.94,0,0,1,30.25,22Z"/><path d="M48,28V20.36A10.93,10.93,0,0,1,42.25,22H46V70H12V22h4.25A10.94,10.94,0,0,1,10,20V72H48V58H62V28ZM60,56H48V30H60Z"/><path d="M19.8,22H30.25a10.94,10.94,0,0,1-6.32-2H22.57a10.94,10.94,0,0,1-6.32,2H19.8Z"/><circle cx="41" cy="66" r="2" transform="translate(-36.63 62.77) rotate(-55.77)"/><path d="M22.5,57.5a3,3,0,1,0,3,3A3,3,0,0,0,22.5,57.5Zm0,4a1,1,0,1,1,1-1A1,1,0,0,1,22.5,61.5Z"/><path d="M32.25,50.25a4,4,0,1,0,4-4A4,4,0,0,0,32.25,50.25Zm6,0a2,2,0,1,1-2-2A2,2,0,0,1,38.25,50.25Z"/><path d="M22.25,32.75a6,6,0,1,0,6,6A6,6,0,0,0,22.25,32.75Zm0,10a4,4,0,1,1,4-4A4,4,0,0,1,22.25,42.75Z"/><path class="cls-2" d="M22.57,20H16.25a9,9,0,1,1,7-14.65,9,9,0,0,1,1.43-1.41,8.94,8.94,0,0,1,11.57.37,9,9,0,1,1,6,15.69H23.93a11,11,0,0,0,12.32.21A11,11,0,1,0,42.25,0a10.94,10.94,0,0,0-6,1.79,11,11,0,0,0-13,.73A11,11,0,1,0,22.57,20Z"/></g></svg>