<svg xmlns="http://www.w3.org/2000/svg" viewBox="0 0 52 58.99"><defs><style>.cls-1{fill:none;}</style></defs><title>咖啡厅</title><g id="图层_2" data-name="图层 2"><g id="图标_1" data-name="图标 1"><g id="咖啡厅"><polygon class="cls-1" points="9.06 24.99 9.06 34.99 21.06 34.99 21.06 24.99 15.98 24.99 15.98 24.99 13.98 24.99 13.98 24.99 9.06 24.99"/><rect class="cls-1" x="41" y="20.99" width="8" height="10"/><polyline class="cls-1" points="15.98 22.99 23.06 22.99 23.06 36.99 7.06 36.99 7.06 22.99 13.98 22.99"/><path class="cls-1" d="M3,17V33a18,18,0,0,0,36,0h0V17"/><rect y="56.99" width="52" height="2"/><rect x="9" y="3" width="2" height="6"/><rect x="31.04" y="3" width="2" height="6"/><rect x="20" width="2" height="6"/><path d="M21,53A20.06,20.06,0,0,0,41,33H51V19H41V15H1V33A20.06,20.06,0,0,0,21,53ZM49,21V31H41V21ZM3,17H14v6H7.06V37h16V23H16V17H39V33h0A18,18,0,0,1,3,33Zm13,8h5.08V35h-12V25H16Z"/></g></g></g></svg>