<svg id="图标_1" data-name="图标 1" xmlns="http://www.w3.org/2000/svg" viewBox="0 0 72 72"><defs><style>.cls-1{fill:none;}.cls-2{fill:#020202;}</style></defs><title>1</title><g id="客栈房"><path class="cls-1" d="M13,38V36a18,18,0,0,1,9.81-16H22A16,16,0,0,0,6,36v2A16,16,0,0,0,22,54h.81A18,18,0,0,1,13,38Z"/><path class="cls-1" d="M15,36v2A16,16,0,0,0,31,54V20A16,16,0,0,0,15,36Z"/><path class="cls-1" d="M49,38V36A16,16,0,0,0,33,20h0V54h0A16,16,0,0,0,49,38Z"/><polygon class="cls-1" points="33 18 42 18 46 18 46 16 40 16 24 16 18 16 18 18 22 18 31 18 33 18"/><polygon class="cls-1" points="18 60 46 60 46 56 42 56 33 56 31 56 22 56 18 56 18 60"/><rect class="cls-1" x="26" y="12" width="12" height="2"/><path class="cls-1" d="M51,36v2a18,18,0,0,1-9.81,16H42A16,16,0,0,0,58,38V36A16,16,0,0,0,42,20h-.81A18,18,0,0,1,51,36Z"/><path class="cls-2" d="M24,10v4H16v5.06A17.8,17.8,0,0,1,22,18H18V16H46v2H42a17.8,17.8,0,0,1,6,1.06V14H40V10H24Zm14,2v2H26V12Z"/><path class="cls-2" d="M46,56v4H18V56h4a17.8,17.8,0,0,1-6-1.06V62H48V54.94A17.8,17.8,0,0,1,42,56Z"/><path class="cls-2" d="M33,18H22a17.8,17.8,0,0,0-6,1.06A18.05,18.05,0,0,0,4,36v2A18.05,18.05,0,0,0,16,54.94,17.8,17.8,0,0,0,22,56H42a17.8,17.8,0,0,0,6-1.06A18.05,18.05,0,0,0,60,38V36A18.05,18.05,0,0,0,48,19.06,17.8,17.8,0,0,0,42,18ZM22,54A16,16,0,0,1,6,38V36A16,16,0,0,1,22,20h.81A18,18,0,0,0,13,36v2a18,18,0,0,0,9.81,16Zm9,0A16,16,0,0,1,15,38V36A16,16,0,0,1,31,20Zm2,0V20h0A16,16,0,0,1,49,36v2A16,16,0,0,1,33,54ZM58,36v2A16,16,0,0,1,42,54h-.81A18,18,0,0,0,51,38V36a18,18,0,0,0-9.81-16H42A16,16,0,0,1,58,36Z"/><rect class="cls-2" x="18" y="62" width="2" height="8"/><rect class="cls-2" x="24.5" y="62" width="2" height="8"/><rect class="cls-2" x="31" y="62" width="2" height="8"/><rect class="cls-2" x="37.5" y="62" width="2" height="8"/><rect class="cls-2" x="44" y="62" width="2" height="8"/><polygon class="cls-2" points="68 4 68 2 31 2 31 4 31 10 33 10 33 4 68 4"/></g></svg>