<svg xmlns="http://www.w3.org/2000/svg" viewBox="0 0 36 69"><defs><style>.cls-1{fill:none;}.cls-2{fill:#020202;}</style></defs><title>KTV</title><g id="图层_2" data-name="图层 2"><g id="图标_1" data-name="图标 1"><g id="KTV"><path class="cls-1" d="M18,46a9,9,0,0,0,9-9V32H24V30h3V24H24V22h3V16H24V14h3V11A9,9,0,0,0,9,11v3h3v2H9v6h3v2H9v6h3v2H9v5A9,9,0,0,0,18,46Z"/><path d="M36,38H34A16,16,0,0,1,18,54h0A16,16,0,0,1,2,38H0A18,18,0,0,0,17,56V67H10v2H26V67H19V56A18,18,0,0,0,36,38Z"/><path class="cls-2" d="M18,48A11,11,0,0,0,29,37V11A11,11,0,0,0,7,11V37A11,11,0,0,0,18,48ZM9,32h3V30H9V24h3V22H9V16h3V14H9V11a9,9,0,0,1,18,0v3H24v2h3v6H24v2h3v6H24v2h3v5A9,9,0,0,1,9,37Z"/></g></g></g></svg>