<svg id="图标_1" data-name="图标 1" xmlns="http://www.w3.org/2000/svg" viewBox="0 0 72 72"><defs><style>.cls-1{fill:none;}</style></defs><title>1</title><g id="快餐"><path class="cls-1" d="M47,16V10H43V36.49a18.75,18.75,0,0,0,4-2.39Z"/><path class="cls-1" d="M41,8V6H37V38a17.22,17.22,0,0,0,4-.73Z"/><path class="cls-1" d="M29,16H25V34.1a18.75,18.75,0,0,0,4,2.39Z"/><path class="cls-1" d="M35,12H31V37.23A17.22,17.22,0,0,0,35,38Z"/><polygon class="cls-1" points="59 14 55 14 55 16 55 26 59 26 59 14"/><path class="cls-1" d="M52,26h1V18H49V32.28A11.92,11.92,0,0,0,51.68,28Z"/><polygon class="cls-1" points="10.95 56 61.05 56 61.47 52 10.53 52 10.95 56"/><path class="cls-1" d="M20.32,28A11.92,11.92,0,0,0,23,32.28V10H19V26h1Z"/><path class="cls-1" d="M61,28H53.73A10.63,10.63,0,0,1,53,30a16.18,16.18,0,0,1-4,5.09,20,20,0,0,1-2,1.52A20.44,20.44,0,0,1,44.52,38a19.16,19.16,0,0,1-17,0A20.44,20.44,0,0,1,25,36.58,19.54,19.54,0,0,1,21.88,34,15.38,15.38,0,0,1,19,30a10.63,10.63,0,0,1-.73-2H8l2.32,22H61.68L64,28Z"/><polygon class="cls-1" points="12 66 60 66 60.84 58 11.16 58 12 66"/><rect class="cls-1" x="13" y="14" width="4" height="12"/><path d="M61,26V12H53v4H49V8H43V4H35v6H29v4H25V8H17v4H11V26H6L9,57.5V58H9l1,10H62l1-10h0v-.5L66,26ZM55,16V14h4V26H55Zm-6,2h4v8H52l-.32,2A11.92,11.92,0,0,1,49,32.28Zm-6-8h4V34.1a18.75,18.75,0,0,1-4,2.39Zm-6,0V6h4V37.23A17.22,17.22,0,0,1,37,38Zm-6,4V12h4V38a17.22,17.22,0,0,1-4-.73Zm-6,2h4V36.49a18.75,18.75,0,0,1-4-2.39Zm-6-4V10h4V32.28A11.92,11.92,0,0,1,20.32,28L20,26H19Zm-6,2h4V26H13ZM60,66H12l-.84-8H60.84Zm1.05-10H10.95l-.42-4H61.47Zm.63-6H10.32L8,28H18.27A10.63,10.63,0,0,0,19,30a15.38,15.38,0,0,0,2.88,4A19.54,19.54,0,0,0,25,36.58,20.44,20.44,0,0,0,27.48,38a19.16,19.16,0,0,0,17,0A20.44,20.44,0,0,0,47,36.58a20,20,0,0,0,2-1.52A16.18,16.18,0,0,0,53,30a10.63,10.63,0,0,0,.73-2H64Z"/></g></svg>