<svg id="图标_1" data-name="图标 1" xmlns="http://www.w3.org/2000/svg" viewBox="0 0 72 72"><title>1</title><g id="冷拼"><path d="M67,48H61.4A30,30,0,0,0,34.91,12.14L40,9.83,39.13,8,30.5,12,21.87,8,21,9.83l5.75,2.63A30,30,0,1,0,38.34,71.32,24,24,0,0,0,68,48ZM43,67.75V70h-.09a22.22,22.22,0,0,1-13.2-5.24L43,51.41ZM28.25,63.33A21.91,21.91,0,0,1,22.09,50H41.59ZM43,48H20A24,24,0,0,0,34.2,69.91c-.73.06-1.46.09-2.2.09A28,28,0,1,1,59.35,48H43Zm2,22V51.41l8.51,8.51,1.42,1.42,3.36,3.36A21.87,21.87,0,0,1,45,70Zm14.75-6.62-3.57-3.57-1.43-1.43L46.41,50H65.91A21.91,21.91,0,0,1,59.75,63.33Z"/></g></svg>