<svg xmlns="http://www.w3.org/2000/svg" viewBox="0 0 39.94 65.76"><defs><style>.cls-1{fill:none;}.cls-2{fill:#020202;}</style></defs><title>lengyin</title><g id="图层_2" data-name="图层 2"><g id="图标_1" data-name="图标 1"><path class="cls-1" d="M21.57,22a10.91,10.91,0,0,1-.48,7.42A9,9,0,0,0,34.9,31.73c.13-.11.26-.22.38-.34a9,9,0,0,0-4.61-15.22A11,11,0,0,1,21.57,22Z"/><path class="cls-1" d="M13.81,16.45a9,9,0,0,0,4.33,3.09,8.91,8.91,0,0,0,1.08.28,9,9,0,0,0,1.56.16H21l.51,0a9,9,0,1,0-7.66-3.52Z"/><path class="cls-1" d="M20,31.35A11,11,0,0,1,8.78,35.78L21,61.76,33.47,35A11,11,0,0,1,20,31.35Z"/><path class="cls-1" d="M11,34a9,9,0,0,0,9-8.38c0-.21,0-.41,0-.62s0-.41,0-.62a8.94,8.94,0,0,0-.54-2.5c-.34,0-.67-.11-1-.18A11,11,0,0,1,11.18,16H11a9,9,0,0,0,0,18Z"/><path class="cls-2" d="M31.46,14.3A11,11,0,1,0,10.39,14,11,11,0,0,0,6.28,34.92L21,65.76,36.53,33A11,11,0,0,0,31.46,14.3ZM37.94,25a9,9,0,0,1-2.66,6.39c-.12.12-.25.23-.38.34a9,9,0,0,1-13.81-2.34A10.91,10.91,0,0,0,21.57,22a11,11,0,0,0,9.1-5.8A9,9,0,0,1,37.94,25ZM21,2a9,9,0,0,1,.51,18L21,20h-.18a9,9,0,0,1-1.56-.16,8.91,8.91,0,0,1-1.08-.28A9,9,0,0,1,21,2ZM5.45,32.08A9,9,0,0,1,11,16h.18a11,11,0,0,0,7.27,5.69c.32.08.66.14,1,.18a8.94,8.94,0,0,1,.54,2.5c0,.21,0,.41,0,.62s0,.41,0,.62A9,9,0,0,1,5.45,32.08ZM21,61.76l-12.18-26A11,11,0,0,0,20,31.35,11,11,0,0,0,33.47,35Z"/></g></g></svg>