<svg id="图标_1" data-name="图标 1" xmlns="http://www.w3.org/2000/svg" viewBox="0 0 72 72"><defs><style>.cls-1{fill:none;}</style></defs><title>1</title><g id="乒乓球"><path class="cls-1" d="M35.48,13.91a7.92,7.92,0,0,1-11.2,0c-.15-.15-.29-.31-.42-.47a28.22,28.22,0,0,0-2.57,2.27,27.85,27.85,0,0,0-7.59,14L46.87,62.88a28,28,0,0,0-9.1-55.17A7.89,7.89,0,0,1,35.48,13.91Z"/><path class="cls-1" d="M18.35,51.84l6.94-6.94L13.21,32.83A28,28,0,0,0,18.35,51.84Z"/><polygon class="cls-1" points="19.76 53.63 17.95 55.43 13.09 60.29 16.29 63.49 21.15 58.63 22.96 56.82 30.08 49.7 26.88 46.5 19.76 53.63"/><path class="cls-1" d="M24.75,58.23a28,28,0,0,0,19,5.13L31.68,51.3Z"/><rect class="cls-1" x="9.23" y="62.83" width="4.52" height="4.52" transform="translate(-42.66 27.19) rotate(-45)"/><path d="M62.67,13.91a30.48,30.48,0,0,0-25.5-8.69,7.9,7.9,0,0,1,.6,2.49,28,28,0,0,1,9.1,55.17L13.7,29.71a27.85,27.85,0,0,1,7.59-14,28.22,28.22,0,0,1,2.57-2.27,7.87,7.87,0,0,1-1.33-2.19,30.49,30.49,0,0,0-6,42.41L5.09,65.09l6.4,6.4L22.92,60.06A30.54,30.54,0,0,0,62.67,13.91ZM18.35,51.84a28,28,0,0,1-5.13-19L25.28,44.9ZM11.49,68.29l-3.2-3.2,3.2-3.2,3.2,3.2ZM23,56.82l-1.81,1.81-4.86,4.86-3.2-3.2L18,55.43l1.81-1.81,7.13-7.13,3.2,3.2Zm1.79,1.41,6.94-6.94L43.75,63.37A28,28,0,0,1,24.75,58.23Z"/><path d="M24.28,13.91a8.46,8.46,0,1,0-.42-.47C24,13.6,24.13,13.76,24.28,13.91Zm1.6-9.6a5.65,5.65,0,0,1,8,0,5.59,5.59,0,0,1,.94,1.3,5.64,5.64,0,0,1-8.94,6.69c-.07-.07-.11-.14-.17-.21a5.68,5.68,0,0,1,.17-7.79Z"/></g></svg>