<svg id="图标_1" data-name="图标 1" xmlns="http://www.w3.org/2000/svg" viewBox="0 0 72 72"><defs><style>.cls-1{fill:none;}.cls-2{fill:#020202;}</style></defs><title>1</title><g id="情侣房"><polygon class="cls-1" points="21 64.26 31.25 26 10.75 26 21 64.26"/><circle class="cls-1" cx="21" cy="13" r="7"/><circle class="cls-1" cx="51" cy="13" r="7"/><polygon class="cls-1" points="40.75 66 61.25 66 51 27.74 40.75 66"/><path class="cls-2" d="M21,22a9,9,0,1,0-9-9A9,9,0,0,0,21,22ZM21,6a7,7,0,1,1-7,7A7,7,0,0,1,21,6Z"/><path class="cls-2" d="M10.21,24H8.14l.54,2L19.4,66l.54,2h2.14l.54-2L33.32,26l.54-2H10.21ZM21,64.26,10.75,26h20.5Z"/><path class="cls-2" d="M51,22a9,9,0,1,0-9-9A9,9,0,0,0,51,22ZM51,6a7,7,0,1,1-7,7A7,7,0,0,1,51,6Z"/><path class="cls-2" d="M63.32,66,52.6,26l-.54-2H49.93l-.54,2L38.68,66l-.54,2H63.86ZM40.75,66,51,27.74,61.25,66Z"/></g></svg>