<svg id="图标_1" data-name="图标 1" xmlns="http://www.w3.org/2000/svg" viewBox="0 0 72 72"><defs><style>.cls-1{fill:none;}</style></defs><title>1</title><g id="棋牌室"><path class="cls-1" d="M36.87,10.86l-2.36.63L32,12.17,8.08,18.57,21.58,69l28.79-7.71-.65-2.43L49,56.26Zm1.74,36-4.88-7L25.82,42l-.74,8.48L23.15,51l2-23.32,1.93-.52L40.54,46.3Z"/><polygon class="cls-1" points="26.01 39.84 32.51 38.09 26.86 30.03 26.01 39.84"/><polygon class="cls-1" points="35.28 2.69 34.74 8.86 38.63 7.82 51.67 56.49 60.43 57.25 64.97 5.29 35.28 2.69"/><path d="M67.66,3,33,0l-.83,9.54L5,16.82,19.82,72l33.59-9-1.06-4,10.33.9ZM50.37,61.24,21.58,69,8.08,18.57,32,12.17l2.55-.68,2.36-.63L49,56.26l.68,2.55Zm1.3-4.76-13-48.67-3.89,1,.54-6.17L65,5.29l-4.55,52Z"/><path d="M25.19,27.63,23.15,51l1.93-.52L25.82,42l7.9-2.12,4.88,7,1.93-.52L27.12,27.12ZM26,39.84,26.86,30l5.64,8.06Z"/></g></svg>