<svg id="图标_1" data-name="图标 1" xmlns="http://www.w3.org/2000/svg" viewBox="0 0 72 72"><title>1</title><g id="热菜"><path d="M66.63,46A14,14,0,0,0,49,26.92a14,14,0,0,0-26.07,0A14,14,0,0,0,5.37,46H0V56H4V68H68V56h4V46Zm-17-17.17A12,12,0,0,1,64.38,46h-5.1a8,8,0,1,0-10.56,0h-5.1a12,12,0,0,1,6-17.17ZM54,46a6,6,0,0,1-5.65-8l1-1.74A6,6,0,1,1,54,46ZM31.94,38.89a7.95,7.95,0,0,0,8.11,0c0,.37-.06.74-.06,1.11a13.92,13.92,0,0,0,1.37,6H30.63A13.92,13.92,0,0,0,32,40C32,39.62,32,39.26,31.94,38.89Zm8.7-3.09a6,6,0,0,1-9.29,0A13.9,13.9,0,0,0,30.08,33a6,6,0,1,1,11.83,0A13.9,13.9,0,0,0,40.64,35.8ZM36,20a12,12,0,0,1,11.21,7.76,14,14,0,0,0-3.38,2.63,8,8,0,0,0-15.68,0,14,14,0,0,0-3.38-2.63A12,12,0,0,1,36,20ZM18,28A12,12,0,0,1,28.38,46h-5.1a8,8,0,1,0-10.56,0H7.62A12,12,0,0,1,18,28Zm0,18a6,6,0,1,1,6-6A6,6,0,0,1,18,46ZM66,66H6V56H66Zm4-12H2V48H70Z"/><rect x="18" y="8" width="2" height="8"/><rect x="50" y="8" width="2" height="8"/><rect x="34" y="4" width="2" height="8"/></g></svg>