<svg id="图标_1" data-name="图标 1" xmlns="http://www.w3.org/2000/svg" viewBox="0 0 72 72"><defs><style>.cls-1{fill:#020202;}</style></defs><title>1</title><g id="热食"><rect class="cls-1" x="18" y="22" width="2" height="8"/><rect class="cls-1" x="34" y="16" width="2" height="8"/><rect class="cls-1" x="50" y="22" width="2" height="8"/><path class="cls-1" d="M66,44h-.26A8,8,0,0,0,58,38H14a8,8,0,0,0-7.74,6H6A6,6,0,0,0,6,56h.26A8,8,0,0,0,14,62H58a8,8,0,0,0,7.74-6H66a6,6,0,0,0,0-12ZM14,40H58a6,6,0,0,1,5.65,4H8.35A6,6,0,0,1,14,40ZM58,60H14a6,6,0,0,1-5.65-4h55.3A6,6,0,0,1,58,60Zm7.81-6H6a4,4,0,0,1-4-4H2a4,4,0,0,1,4-4H66a4,4,0,0,1,4,4.41A4.13,4.13,0,0,1,65.81,54Z"/><path d="M50,48a2,2,0,0,1-4,0,4,4,0,0,0-8,0,2,2,0,0,1-4,0,4,4,0,0,0-8,0,2,2,0,0,1-4,0,4,4,0,0,0-4-4v2a2,2,0,0,1,2,2,4,4,0,0,0,8,0,2,2,0,0,1,4,0,4,4,0,0,0,8,0,2,2,0,0,1,4,0,4,4,0,0,0,8,0,2,2,0,0,1,2-2V44A4,4,0,0,0,50,48Z"/></g></svg>