<svg id="图标_1" data-name="图标 1" xmlns="http://www.w3.org/2000/svg" viewBox="0 0 72 72"><defs><style>.cls-1{fill:none;}.cls-2{fill:#020202;}</style></defs><title>1</title><g id="三人间"><path class="cls-1" d="M26.43,33.2A14,14,0,0,1,22,23c0-.05,0-.11,0-.16a10,10,0,0,0-8.7,18,20.17,20.17,0,0,0-1.65,1.34A19.94,19.94,0,0,0,5,57v4H9V57h2v4h3V53A22.07,22.07,0,0,1,26.43,33.2Z"/><path class="cls-1" d="M48,37a20.09,20.09,0,0,0-3.1-1.93l-.45-.21-.61-.29a14,14,0,0,1-15.66,0A20.07,20.07,0,0,0,16,53v8H28V55h2v6H42V55h2v6H56V53a19.84,19.84,0,0,0-3.39-11.1A20.25,20.25,0,0,0,48,37Z"/><path class="cls-1" d="M28.47,32.34a11.94,11.94,0,0,0,12.85,1.41c.26-.13.51-.28.76-.43a11.68,11.68,0,0,0,1.45-1c.17-.13.32-.28.47-.43a11.94,11.94,0,0,0,3.93-7.85c0-.35.06-.7.06-1.06a12,12,0,0,0-24,0A12,12,0,0,0,28.47,32.34Z"/><path class="cls-1" d="M60.35,42.17a20.17,20.17,0,0,0-1.65-1.34,10,10,0,0,0-8.7-18c0,.05,0,.11,0,.16a14,14,0,0,1-4.43,10.2A22.16,22.16,0,0,1,55,41.94,21.79,21.79,0,0,1,58,53v8h3V57h2v4h4V57A19.94,19.94,0,0,0,60.35,42.17Z"/><path class="cls-2" d="M62,40.94A12,12,0,0,0,49.81,20.77a14,14,0,0,0-27.61,0h0A12,12,0,0,0,10,40.94,22,22,0,0,0,3,57v6H69V57A22,22,0,0,0,62,40.94ZM36,11A12,12,0,0,1,48,23c0,.36,0,.71-.06,1.06A11.94,11.94,0,0,1,44,31.91c-.16.14-.31.29-.47.43a11.68,11.68,0,0,1-1.45,1c-.25.15-.5.3-.76.43A12,12,0,1,1,36,11ZM14,55v6H11V57H9v4H5V57a19.94,19.94,0,0,1,6.65-14.83,20.17,20.17,0,0,1,1.65-1.34,10,10,0,0,1,8.7-18c0,.05,0,.1,0,.16a14,14,0,0,0,4.43,10.2A22.07,22.07,0,0,0,14,53Zm42,0v6H44V55H42v6H30V55H28v6H16V53A20.07,20.07,0,0,1,28.17,34.61a14.12,14.12,0,0,0,15.66,0l.61.29.45.21a20.4,20.4,0,0,1,7.72,6.79A19.84,19.84,0,0,1,56,53Zm11,6H63V57H61v4H58V53a21.79,21.79,0,0,0-3-11.06,22.47,22.47,0,0,0-9.42-8.74A14,14,0,0,0,50,23c0-.05,0-.11,0-.16a10,10,0,0,1,8.7,18,20.17,20.17,0,0,1,1.65,1.34A19.94,19.94,0,0,1,67,57Z"/></g></svg>