<svg id="图标_1" data-name="图标 1" xmlns="http://www.w3.org/2000/svg" viewBox="0 0 72 72"><defs><style>.cls-1{fill:none;}</style></defs><title>1</title><g id="商务中心"><rect class="cls-1" x="26" y="14" width="20" height="6"/><polygon class="cls-1" points="62 40 60 40 60 38 44 38 44 42 28 42 28 38 12 38 12 40 10 40 10 38 2 38 2 62 70 62 70 38 62 38 62 40"/><rect class="cls-1" x="26" y="10" width="20" height="2"/><polygon class="cls-1" points="42 36 42 34 30 34 30 36 30 38 30 40 42 40 42 38 42 36"/><polygon class="cls-1" points="24 22 2 22 2 36 10 36 10 34 12 34 12 36 28 36 28 32 44 32 44 36 60 36 60 34 62 34 62 36 70 36 70 22 48 22 24 22"/><path d="M48,20V8H24V20H0V64H72V20ZM26,10H46v2H26Zm0,4H46v6H26ZM70,62H2V38h8v2h2V38H28v4H44V38H60v2h2V38h8ZM30,40V34H42v6Zm40-4H62V34H60v2H44V32H28v4H12V34H10v2H2V22H70Z"/></g></svg>