<svg id="图标_1" data-name="图标 1" xmlns="http://www.w3.org/2000/svg" viewBox="0 0 72 72"><defs><style>.cls-1{fill:#020202;}</style></defs><title>1</title><path id="商务房" class="cls-1" d="M42.23,12.47,44,16h2L53,2H37l.6,1.21a16.47,16.47,0,0,0-5.21,0L33,2H17l7,14h2l1.77-3.53,2.3,4.27-12.38,19L17.11,48l1.52.87,8.07-5.14L25.28,53.83,35,70.66l9.72-16.83L39.9,16.51ZM40.71,4H50L45,14l-1.69-3.39L42.23,8.47,41.17,6.34,40,4ZM27.77,8.47l-1.07,2.14L25,14,20,4H30L28.83,6.34Zm1.07,1.86,2.42-4.84a14.64,14.64,0,0,1,7.49,0l2.42,4.84-1.74,3-.09-.05a8,8,0,0,0-8.67,0l-.09.05ZM19.29,46l.34-9.43,9.8-14.68L27.08,40.66l-.06.48Zm23.33,7.5L35,66.66l-7.62-13.2.92-7L40.73,39Zm-2.4-18.29.22,1.72-11.82,7,.2-1.54.06-.47,4.41-2.63ZM39.94,33l-5.71,3.4-2.58,1.53-2.44,1.45,2.87-21.92.38-2.89A5.94,5.94,0,0,1,35,14h.15a6,6,0,0,1,2.38.56L38,18.24l.6,4.62Z"/></svg>