<svg id="图标_1" data-name="图标 1" xmlns="http://www.w3.org/2000/svg" viewBox="0 0 72 72"><defs><style>.cls-1{fill:none;}.cls-2{fill:#020202;}</style></defs><title>1</title><g id="双床房"><polygon class="cls-1" points="37 22 40 22 40 18 54 18 54 22 59.24 22 60 22 60 18.66 60 6 37 6 37 22"/><polygon class="cls-1" points="52 22 52 20 42 20 42 22 42 24 42 26 52 26 52 24 52 22"/><polygon class="cls-1" points="54 24 54 28 40 28 40 24 37 24 37 48 67.41 48 59.87 24 54 24"/><polygon class="cls-1" points="18 22 18 18 32 18 32 22 35 22 35 6 12 6 12 17.61 12 22 12.72 22 18 22"/><rect class="cls-1" x="4" y="50" width="31" height="10"/><rect class="cls-1" x="37" y="50" width="31" height="10"/><polygon class="cls-1" points="20 24 20 26 30 26 30 24 30 22 30 20 20 20 20 22 20 24"/><polygon class="cls-1" points="35 24 32 24 32 28 18 28 18 24 12.1 24 4.62 48 35 48 35 24"/><path class="cls-2" d="M62,24h0V4H10V24h0L2,50V62h8v6h2V62H60v6h2V62h8V50Zm5.44,24H37V24h3v4H54V24h5.87ZM42,26V20H52v6Zm18-7.34V22H54V18H40v4H37V6H60Zm-48-1V6H35V22H32V18H18v4H12ZM30,20v6H20V20ZM12.1,24H18v4H32V24h3V48H4.62ZM4,60V50H35V60Zm64,0H37V50H68Z"/></g></svg>