<svg id="图标_1" data-name="图标 1" xmlns="http://www.w3.org/2000/svg" viewBox="0 0 72 72"><title>1</title><g id="汤羹"><path d="M70,20H64V16H8v4H2v8H8V68H64V28h6ZM4,26V22H8v4Zm6,40V32H62V66ZM62,30H10V18H62V30Zm6-4H64V22h4Z"/><path d="M42,12H64V10H42V4H32v6H8v2H42ZM34,6h6v4H34Z"/><path d="M18.5,56.5a3,3,0,1,0,3,3A3,3,0,0,0,18.5,56.5Zm0,4a1,1,0,1,1,1-1A1,1,0,0,1,18.5,60.5Z"/><path d="M39.5,44.5a3,3,0,1,0,3,3A3,3,0,0,0,39.5,44.5Zm0,4a1,1,0,1,1,1-1A1,1,0,0,1,39.5,48.5Z"/><path d="M52.5,57.5a3,3,0,1,0,3,3A3,3,0,0,0,52.5,57.5Zm0,4a1,1,0,1,1,1-1A1,1,0,0,1,52.5,61.5Z"/><path d="M26.25,35.25a4,4,0,1,0,4,4A4,4,0,0,0,26.25,35.25Zm0,6a2,2,0,1,1,2-2A2,2,0,0,1,26.25,41.25Z"/></g></svg>