<svg id="图标_1" data-name="图标 1" xmlns="http://www.w3.org/2000/svg" viewBox="0 0 72 72"><defs><style>.cls-1{fill:none;}</style></defs><title>1</title><g id="甜点"><path class="cls-1" d="M26,40v3.59l6,6V46h2V62a2,2,0,0,0,4,0V54h2v3.59l6,6V44a6,6,0,0,1,0-12V12.77A146,146,0,0,0,11.66,29.25L16,33.59V32M34,20a6,6,0,1,1-6,6A6,6,0,0,1,34,20Z"/><path class="cls-1" d="M18,38.41V50a3,3,0,0,0,6,0V44.41"/><path class="cls-1" d="M10.23,27.81A146,146,0,0,1,46,10.68V4.82a146,146,0,0,0-39.74,19Z"/><path class="cls-1" d="M42,38a4,4,0,0,0,4,4V34A4,4,0,0,0,42,38Z"/><path d="M46,2v.76L45.24,3A146,146,0,0,0,4.84,22.42l-1.46,1L4.59,25l3.95,3.95L10,30.37l6,6V33.59l-4.34-4.34A146,146,0,0,1,46,12.77V32a6,6,0,0,1,1,.09v2.05A4,4,0,0,0,46,34v8a4,4,0,0,0,1-.14v2.05A6,6,0,0,1,46,44V63.59l-6-6v2.83l6,6L47,66l1-.41V2Zm0,8.68A146,146,0,0,0,10.23,27.81l-4-4A146,146,0,0,1,46,4.82Z"/><polygon points="26 43.59 26 46.41 32 52.41 32 49.59 26 43.59"/><circle class="cls-1" cx="34" cy="26" r="4"/><path d="M34,32a6,6,0,1,0-6-6A6,6,0,0,0,34,32Zm0-10a4,4,0,1,1-4,4A4,4,0,0,1,34,22Z"/><path d="M40,38a6,6,0,0,0,6,6V42a4,4,0,0,1,0-8V32A6,6,0,0,0,40,38Z"/><path d="M47,43.91V41.86A4,4,0,0,1,46,42v2A6,6,0,0,0,47,43.91Z"/><path d="M47,34.14V32.09A6,6,0,0,0,46,32v2A4,4,0,0,1,47,34.14Z"/><path d="M38,62a2,2,0,0,1-4,0V54.41l-2-2V62a4,4,0,0,0,8,0V60.41l-2-2Z"/><polygon points="38 54 38 55.59 40 57.59 40 54 38 54"/><polygon points="32 46 32 49.59 34 51.59 34 46 32 46"/><polygon points="38 55.59 38 58.41 40 60.41 40 57.59 38 55.59"/><polygon points="34 51.59 32 49.59 32 52.41 34 54.41 34 51.59"/><polyline points="16 32 16 33.59 18 35.59 18 32"/><polyline points="24 40 24 41.59 26 43.59 26 40"/><path d="M24,50a3,3,0,0,1-6,0V38.41l-2-2V50a5,5,0,0,0,10,0V46.41l-2-2Z"/><polygon points="24 41.59 24 44.41 26 46.41 26 43.59 24 41.59"/><polygon points="18 35.59 16 33.59 16 36.41 18 38.41 18 35.59"/></g></svg>