<svg id="图标_1" data-name="图标 1" xmlns="http://www.w3.org/2000/svg" viewBox="0 0 72 72"><defs><style>.cls-1{fill:none;}</style></defs><title>1</title><g id="甜点"><path class="cls-1" d="M50,2A20,20,0,0,0,30,22c0,.17,0,.34,0,.51a25,25,0,0,1,13.21,7.42l.6-.5L45,31l-.47.39a24.88,24.88,0,0,1,5,10.54L50,42A20,20,0,0,0,50,2ZM39.84,19.57,35,16l1.18-1.62L41,18ZM51,12H49V6h2Zm8.84,22.57L55,31l1.18-1.62L61,33Zm2.32-14L61,19l4.85-3.53L67,17Z"/><path class="cls-1" d="M47.41,41.81A23,23,0,0,0,30.19,24.59q-1-.24-2.08-.38A23,23,0,1,0,47.78,43.89Q47.64,42.83,47.41,41.81ZM7,39.87l1-1.73,6.93,4-1,1.73Zm6,22-1-1.73,6.93-4,1,1.73ZM26,36H24V28h2ZM37,61.87l-6.93-4,1-1.73,6.93,4Zm-.93-18-1-1.73,6.93-4,1,1.73Z"/><path d="M50,0A22,22,0,0,0,28,22c0,.06,0,.12,0,.19A25,25,0,1,0,49.81,44H50A22,22,0,0,0,50,0ZM25,70a23,23,0,1,1,3.11-45.78q1.05.14,2.08.38A23,23,0,0,1,47.41,41.81q.24,1,.38,2.08A23,23,0,0,1,25,70ZM50,42l-.51,0a24.88,24.88,0,0,0-5-10.54L45,31l-1.18-1.62-.6.5A25,25,0,0,0,30,22.51c0-.17,0-.33,0-.51A20,20,0,1,1,50,42Z"/><rect x="24" y="28" width="2" height="8"/><rect x="10" y="37" width="2" height="8" transform="translate(-30.01 30.03) rotate(-60)"/><rect x="33" y="55" width="2" height="8" transform="translate(-34.1 58.94) rotate(-60)"/><rect x="12" y="58" width="8" height="2" transform="translate(-27.36 15.9) rotate(-30)"/><rect x="35" y="40" width="8" height="2" transform="translate(-15.27 24.99) rotate(-30)"/><rect x="49" y="6" width="2" height="6"/><rect x="61" y="17" width="6" height="2" transform="translate(1.64 41.06) rotate(-36)"/><rect x="57" y="29" width="2" height="6" transform="translate(-1.98 60.11) rotate(-54)"/><rect x="37" y="14" width="2" height="6" transform="translate(1.91 37.75) rotate(-54)"/></g></svg>