<svg id="图标_1" data-name="图标 1" xmlns="http://www.w3.org/2000/svg" viewBox="0 0 72 72"><title>1</title><g id="温泉"><path d="M12,56a7,7,0,0,1,7,7h2a7,7,0,0,1,14,0h2a7,7,0,0,1,14,0h2a7,7,0,0,1,14,0h2a9,9,0,0,0-17-4.11,9,9,0,0,0-16,0,9,9,0,0,0-16,0A9,9,0,0,0,3,63H5A7,7,0,0,1,12,56Z"/><path d="M60,63a9,9,0,0,0-8,4.89,9,9,0,0,0-16,0,9,9,0,0,0-16,0A9,9,0,0,0,3,72H5a7,7,0,0,1,14,0h2a7,7,0,0,1,14,0h2a7,7,0,0,1,14,0h2a7,7,0,0,1,14,0h2A9,9,0,0,0,60,63Z"/><path d="M26,42H48V52h2V2H62V8h2V0H48V16H26V2H38V8h2V0H24V52h2Zm22-2H26V30H48Zm0-22V28H26V18Z"/></g></svg>