<svg id="图标_1" data-name="图标 1" xmlns="http://www.w3.org/2000/svg" viewBox="0 0 72 72"><defs><style>.cls-1{fill:none;}</style></defs><title>1</title><g id="wifi"><path class="cls-1" d="M36,15A43.88,43.88,0,0,1,68.87,29.76L123.3-17H-51.3L3.13,29.76A43.88,43.88,0,0,1,36,15Z"/><path class="cls-1" d="M36,44a14.94,14.94,0,0,0-10.86,4.67L36,58l10.86-9.33A14.94,14.94,0,0,0,36,44Z"/><path class="cls-1" d="M36,31a27.93,27.93,0,0,0-20.74,9.19l8.36,7.18a16.95,16.95,0,0,1,24.75,0l8.36-7.18A27.93,27.93,0,0,0,36,31Z"/><path class="cls-1" d="M36,17A41.89,41.89,0,0,0,4.65,31.06l9.1,7.82a30,30,0,0,1,44.51,0l9.1-7.82A41.89,41.89,0,0,0,36,17Z"/><path d="M36,15A43.88,43.88,0,0,0,3.13,29.76l1.52,1.3a42,42,0,0,1,62.71,0l1.52-1.3A43.88,43.88,0,0,0,36,15Z"/><path d="M36,29a29.92,29.92,0,0,0-22.25,9.88l1.52,1.3a28,28,0,0,1,41.47,0l1.52-1.3A29.92,29.92,0,0,0,36,29Z"/><path d="M36,42a16.93,16.93,0,0,0-12.37,5.37l1.52,1.3a15,15,0,0,1,21.72,0l1.52-1.3A16.93,16.93,0,0,0,36,42Z"/><path d="M36,54a3,3,0,1,0,3,3A3,3,0,0,0,36,54Z"/></g><rect id="_切片_" data-name="&lt;切片&gt;" class="cls-1" width="72" height="72"/></svg>