<svg id="图标_1" data-name="图标 1" xmlns="http://www.w3.org/2000/svg" viewBox="0 0 72 72"><defs><style>.cls-1{fill:none;}</style></defs><title>1</title><g id="西式主食"><path class="cls-1" d="M63.49,27.14l1,1.72,1,1.72a2,2,0,1,0,.71-2.74l-1-1.72a2,2,0,1,0-2.74-.71Z"/><path class="cls-1" d="M51,40.5l-7.82,4.07a8.2,8.2,0,0,1-9.94-3.82A8,8,0,0,1,35.9,30.42a7.81,7.81,0,0,1,2.94-1.12l8.45-1.56C44.79,24.39,40.86,22,35,22,22.85,22,5,32.27,5,40S16.85,52,29,52C40.89,52,50.57,47.91,51,40.5Z"/><path class="cls-1" d="M38.35,31.41A6,6,0,0,0,34.64,39l0,0,0,.08a6,6,0,0,0,7.14,3.77l.41-.11,8.69-4.48,1.92-1L54,36.68s2.47-1.13,2.62-1.25h0c1.46-1.55,2.13-3.08,1.7-4.36a3.83,3.83,0,0,0-2.81-2.18,6.49,6.49,0,0,0-2.62-.2,3.21,3.21,0,0,0-.6.12l-1.84.34-2,.38-10,1.85Z"/><rect class="cls-1" x="14" y="54" width="44" height="4"/><path d="M60,52H42.12C48.67,49.73,53,45.61,53,40c0-.18,0-.37,0-.55l1.66-.86,2.67-1.2h0c2.15-2.06,3.32-4.23,3.11-6.14l2.35-1.38,1,1.72A4,4,0,1,0,68,25.66a4,4,0,1,0-7.23.77l1,1.72-2.09,1.23c-1-1.33-2.81-2.22-5.21-2.6a6.72,6.72,0,0,0-1.78,0,5.14,5.14,0,0,0-1,.19l-2.26.42C46.61,23.11,42,20,35,20,21.75,20,3,31.16,3,40c0,5.61,5.13,9.73,12.27,12H0v2H12v6H60V54H72V52Zm3.19-29.32a2,2,0,0,1,2,3.45l1,1.72a2,2,0,1,1-.71,2.74l-1-1.72-1-1.72-1-1.72A2,2,0,0,1,63.19,22.68Zm-12.7,6.48,1.84-.34a3.21,3.21,0,0,1,.6-.12,6.49,6.49,0,0,1,2.62.2,3.83,3.83,0,0,1,2.81,2.18c.43,1.28-.24,2.81-1.7,4.36h0c-.15.12-2.62,1.25-2.62,1.25l-1.19.61-1.92,1-8.69,4.48-.41.11a6,6,0,0,1-7.14-3.77l0-.08,0,0a6,6,0,0,1,3.71-7.57l.07,0,10-1.85ZM5,40c0-7.73,17.85-18,30-18,5.86,0,9.79,2.39,12.29,5.74L38.84,29.3a7.81,7.81,0,0,0-2.94,1.12,8,8,0,0,0-2.68,10.33,8.2,8.2,0,0,0,9.94,3.82L51,40.5C50.57,47.91,40.89,52,29,52,16.85,52,5,47.73,5,40ZM58,58H14V54H58Z"/></g></svg>