<svg id="图标_1" data-name="图标 1" xmlns="http://www.w3.org/2000/svg" viewBox="0 0 72 72"><title>1</title><path id="西式甜点" d="M60,40V16H39V8H33v8H12V40H0V64H72V40ZM35,10h2v6H35ZM14,18H58v2H14Zm34,4a5,5,0,0,0-1,2.87A3.14,3.14,0,0,1,44.27,28,3,3,0,0,1,41,25a5,5,0,0,0-1-3ZM32,22a5,5,0,0,0-1,3,3,3,0,0,1-6,0,5,5,0,0,0-1-3ZM14,22h6a3,3,0,0,1,3,3,5.09,5.09,0,0,0,8,4.05,4.44,4.44,0,0,0,2-4A3,3,0,0,1,36.21,22,3.15,3.15,0,0,1,39,25.15a5.07,5.07,0,0,0,7.8,4.08A4.62,4.62,0,0,0,49,25a3,3,0,0,1,3-3h6V40H14ZM11,42H70v4H2V42ZM2,62V48H70V62Z"/></svg>