<svg id="图标_1" data-name="图标 1" xmlns="http://www.w3.org/2000/svg" viewBox="0 0 72 72"><defs><style>.cls-1{fill:none;stroke:#000;stroke-linecap:round;stroke-miterlimit:10;stroke-width:2px;}</style></defs><title>1</title><g id="西式开胃菜"><path d="M34.37,5.75l.44,0a6.93,6.93,0,0,1,4.07,2A14.6,14.6,0,0,0,49,12.06l.75,0c.23,0,.45,0,.68,0h.16c4.9.18,8,2.72,9.09,7.56A11.7,11.7,0,0,1,59.82,23a10.23,10.23,0,0,0,2.77,7.39A12.8,12.8,0,0,1,65.95,36H27.26a5.8,5.8,0,0,0,.09-.8c.21-4.63-3.18-8.29-5.22-10.06a3.75,3.75,0,0,1-1-1.29c-.87-2-.93-3.63-.17-4.95a2.48,2.48,0,0,1,1.78-1.05,9.7,9.7,0,0,0,5-2.5A11.8,11.8,0,0,0,31.17,9c.59-2.86,2-3.25,3.2-3.25m0-2c-2.13,0-4.37,1-5.16,4.84a9.83,9.83,0,0,1-2.8,5.3,7.75,7.75,0,0,1-4,2,4.43,4.43,0,0,0-3.18,2c-.81,1.4-1.31,3.62.08,6.75a5.73,5.73,0,0,0,1.5,2c1.54,1.34,4.71,4.57,4.54,8.46A4.42,4.42,0,0,1,24,38H66.22A1.78,1.78,0,0,0,68,35.85,14.67,14.67,0,0,0,64,29a8.18,8.18,0,0,1-2.19-5.83,13.5,13.5,0,0,0-.2-4.06c-.81-3.46-3.3-8.82-11-9.1h-.23c-.27,0-.55,0-.82,0l-.61,0a12.65,12.65,0,0,1-8.72-3.71A8.83,8.83,0,0,0,35,3.78l-.6,0Z"/><path class="cls-1" d="M28,13l-1-1.47-.06,0c-.61-.16-8.81-2.2-9.78,5.51a7.53,7.53,0,0,1-6.9,5.95A7.16,7.16,0,0,0,6.49,24.4C4.25,26.2,1.56,30,9.19,37c0,0,1,0,1.06,0H26"/><path d="M54,36a16.23,16.23,0,0,0-3.39-8.77,5,5,0,0,0-.67-5.68,1,1,0,0,0-1.59.11,1,1,0,0,0,.13,1.25,3,3,0,0,1,.68,2.59,26.08,26.08,0,0,0-17.05-7.44,1,1,0,1,0-.11,2,26.52,26.52,0,0,1,9.34,2.35,3,3,0,0,1-2.5.71,1,1,0,0,0-1.13.54h0a1,1,0,0,0,.74,1.41,5,5,0,0,0,4.73-1.73,18.52,18.52,0,0,1,7.19,7.14,3,3,0,0,1-3.25,0A1,1,0,1,0,46,32.13a5,5,0,0,0,5.2.21A13.57,13.57,0,0,1,52,36H8l2,32H66l2-32ZM64,66H12l-.39-5.5H64.39Zm.54-7.5H11.46L10,38H66Z"/></g></svg>