<svg id="图标_1" data-name="图标 1" xmlns="http://www.w3.org/2000/svg" viewBox="0 0 72 72"><title>1</title><path id="西式汤品" d="M58.11,34c.05-.13.11-.26.16-.39.18-.49.35-1,.51-1.48a30.85,30.85,0,0,0,1.05-4.64l.17,0a3,3,0,0,0,0-6h-.08c-.37-2.4-1.3-4.08-2.75-4.53-2.07-.64-4.68,1.38-6.87,4.91-.36.58-.71,1.19-1,1.85a30.85,30.85,0,0,0-1.95,4.85c-.06.19-.1.37-.15.56q-.28,1-.49,1.91c-.23,1-.39,2-.5,2.95H38.61a38,38,0,0,0,2.82-6.15C45.12,17.44,43.9,7.5,38.69,5.65s-12.42,5.09-16.12,15.5a38.16,38.16,0,0,0-1.48,5.42l0,0C16.93,18.1,10,13.05,5.49,15.25S.8,25.73,4.71,34H0v2A36,36,0,0,0,18,67.15V72H54V67.15A36,36,0,0,0,72,36V34ZM60,23.5l.08,0a1,1,0,0,1-.06,2h0a1,1,0,0,1,0-2Zm-3.42-4.61c.9.28,1.43,1.48,1.6,3.24a3,3,0,0,0-.8.94,30.46,30.46,0,0,0-5-1C53.88,19.78,55.41,18.53,56.58,18.89ZM49.22,29.18a32.51,32.51,0,0,1,2.14-5.31,31.87,31.87,0,0,1,5.69,1.19A3,3,0,0,0,58,26.7a33,33,0,0,1-1.11,4.83c-.17.56-.36,1.09-.55,1.62-.46-.12-.93-.24-1.4-.39a31.41,31.41,0,0,1-6-2.51C49,29.89,49.11,29.54,49.22,29.18Zm-.77,3A28.9,28.9,0,0,0,52.38,34H48.12C48.21,33.41,48.32,32.8,48.45,32.18ZM38.91,8c3.35,2.37,3.7,10.51.63,19.16A37.46,37.46,0,0,1,36.34,34H29.69ZM24.46,21.82C27.53,13.17,32.94,7.07,37,7.35L27.57,34H23.62a27.73,27.73,0,0,0-1.07-4A36.52,36.52,0,0,1,24.46,21.82Zm-5.18,5.59A27.57,27.57,0,0,1,21.58,34H15.84L7.53,17.13C11,16.54,16,20.82,19.28,27.41ZM5.74,18l7.87,16H6.93l-.21-.41C3.48,27,3.14,20.42,5.74,18ZM52,70H20V68H52Zm0-4H20A34,34,0,0,1,2.54,42H69.46A34,34,0,0,1,52,66ZM69.76,40H2.24A34.28,34.28,0,0,1,2,36H70A34.28,34.28,0,0,1,69.76,40Z"/></svg>