<svg id="图标_1" data-name="图标 1" xmlns="http://www.w3.org/2000/svg" viewBox="0 0 72 72"><defs><style>.cls-1{fill:none;}</style></defs><title>1</title><g id="洗衣服务"><path class="cls-1" d="M28,44.5a14.9,14.9,0,0,1,7.67,2.12A15,15,0,0,1,48.92,44.9a13,13,0,1,0-25.78.42A15,15,0,0,1,28,44.5Z"/><rect class="cls-1" x="32" y="8" width="6" height="2"/><path class="cls-1" d="M28,46.5a12.94,12.94,0,0,0-4.43.79,13,13,0,0,0,16.87,8.42A13,13,0,0,0,28,46.5Z"/><path class="cls-1" d="M37.45,47.87a15,15,0,0,1,4.81,7,13,13,0,0,0,6.28-8A13,13,0,0,0,37.45,47.87Z"/><path class="cls-1" d="M14,70H58V18H14ZM36,28.5A15,15,0,0,1,50.83,45.72h0l0,.11A15,15,0,1,1,36,28.5Z"/><path class="cls-1" d="M14,16H58V2H14ZM30,6H40v6H30ZM18,6H28v6H18Z"/><rect class="cls-1" x="20" y="8" width="6" height="2"/><path d="M12,0V72H60V0ZM58,70H14V18H58Zm0-54H14V2H58Z"/><path d="M28,6H18v6H28Zm-2,4H20V8h6Z"/><path d="M40,6H30v6H40Zm-2,4H32V8h6Z"/><path d="M21.73,48.11a15,15,0,0,0,29.08-2.28l0-.11h0a15,15,0,1,0-29.59.41A14.89,14.89,0,0,0,21.73,48.11ZM36,56.5a13,13,0,0,1-12.43-9.21,13,13,0,0,1,16.87,8.42A12.94,12.94,0,0,1,36,56.5Zm6.27-1.61a15,15,0,0,0-4.81-7,13,13,0,0,1,11.09-1A13,13,0,0,1,42.27,54.89ZM36,30.5A12.94,12.94,0,0,1,48.92,44.9a15,15,0,0,0-13.24,1.72,14.89,14.89,0,0,0-12.53-1.3A12.91,12.91,0,0,1,36,30.5Z"/></g></svg>