<svg id="图标_1" data-name="图标 1" xmlns="http://www.w3.org/2000/svg" viewBox="0 0 72 72"><defs><style>.cls-1{fill:#020202;}</style></defs><title>1</title><g id="婴儿房"><path class="cls-1" d="M66.31,30a7.12,7.12,0,0,0-6.57-.57A25,25,0,0,0,51.82,14.5a25.08,25.08,0,0,0,5.53-7.28l-1.74-1a23.1,23.1,0,0,1-5.34,7,25,25,0,0,0-30.52,0c-.54.41-1.06.84-1.56,1.3A25,25,0,0,0,10.33,29a6.52,6.52,0,0,0-4.64,1C2.07,32.52,2,38.61,5.45,43.59c2.76,3.94,6.94,6,10.36,5.42a25,25,0,0,0,38.79-.49c3.62,1.68,8.75-.35,12-4.93C70,38.61,69.93,32.52,66.31,30ZM35,10a22.89,22.89,0,0,1,13.66,4.5A22.89,22.89,0,0,1,35,19a22.89,22.89,0,0,1-13.66-4.5A22.89,22.89,0,0,1,35,10ZM64.92,42.44c-2.54,3.62-6.38,5.41-9.11,4.42a3.79,3.79,0,0,1-1.66-1.12c-.38.56-.78,1.11-1.2,1.64a23,23,0,0,1-35.11.92c-.45-.51-.88-1-1.29-1.58a4.64,4.64,0,0,1-2.17.4c-2.45-.1-5.28-1.81-7.29-4.68-2.85-4.07-3-8.91-.25-10.81a4.59,4.59,0,0,1,3.26-.71C10,31.6,10,32.3,10,33a25,25,0,0,0,.52,5h2A23,23,0,0,1,12,33c0-.52,0-1,.06-1.54,0-.69.12-1.36.22-2A23,23,0,0,1,19.74,15.8,24.88,24.88,0,0,0,35,21a24.89,24.89,0,0,0,15.26-5.2,22.94,22.94,0,0,1,7.58,14.51q.13,1.12.15,2.26c0,.14,0,.28,0,.43a23,23,0,0,1-.55,5h2A25,25,0,0,0,60,33c0-.52,0-1-.05-1.55a5.33,5.33,0,0,1,5.21.17C67.88,33.53,67.77,38.37,64.92,42.44Z"/><path class="cls-1" d="M29.93,26.16a1,1,0,0,0,1.21-1.55A8.47,8.47,0,0,0,26,23a8.47,8.47,0,0,0-5.14,1.61,1,1,0,0,0,1.21,1.55A6.55,6.55,0,0,1,26,25,6.55,6.55,0,0,1,29.93,26.16Z"/><path class="cls-1" d="M45,23a8.47,8.47,0,0,0-5.14,1.61,1,1,0,0,0,1.21,1.55,7.25,7.25,0,0,1,7.86,0,1,1,0,0,0,1.21-1.55A8.47,8.47,0,0,0,45,23Z"/><path class="cls-1" d="M36,30A12,12,0,0,0,24,42v2H48V42A12,12,0,0,0,36,30ZM26,42a10,10,0,0,1,20,0Z"/><path class="cls-1" d="M9,14a4,4,0,1,0-4-4A4,4,0,0,0,9,14ZM9,8a2,2,0,1,1-2,2A2,2,0,0,1,9,8Z"/><path class="cls-1" d="M64,14a4,4,0,1,0-4-4A4,4,0,0,0,64,14Zm0-6a2,2,0,1,1-2,2A2,2,0,0,1,64,8Z"/><path class="cls-1" d="M69,21a3,3,0,1,0,3,3A3,3,0,0,0,69,21Zm0,4a1,1,0,1,1,1-1A1,1,0,0,1,69,25Z"/><path class="cls-1" d="M59,55a3,3,0,1,0,3,3A3,3,0,0,0,59,55Zm0,4a1,1,0,1,1,1-1A1,1,0,0,1,59,59Z"/><path class="cls-1" d="M6,24a3,3,0,1,0-3,3A3,3,0,0,0,6,24ZM2,24a1,1,0,1,1,1,1A1,1,0,0,1,2,24Z"/><path class="cls-1" d="M13,60a3,3,0,1,0,3,3A3,3,0,0,0,13,60Zm0,4a1,1,0,1,1,1-1A1,1,0,0,1,13,64Z"/></g></svg>