<svg id="图标_1" data-name="图标 1" xmlns="http://www.w3.org/2000/svg" viewBox="0 0 72 72"><title>1</title><g id="饮料"><path d="M56,8V4H16V8H12v8h4.07l.44,12h2L18,16H54l-.48,12h2l.44-12H60V8ZM18,6H54V8H18Zm40,8H14V10H58Z"/><polygon points="52 66 20 66 19.28 48 17.26 48 18 68 54 68 54.74 48 52.72 48 52 66"/><polygon points="19.28 48 52.72 48 52.8 46 19.2 46 19.28 48"/><polygon points="56 30 56 46 54.81 46 54.74 48 58 48 58 28 55.48 28 55.41 30 56 30"/><polygon points="16 46 16 30 16.59 30 16.52 28 14 28 14 48 17.26 48 17.18 46 16 46"/><polygon points="53.44 30 53.52 28 18.48 28 18.56 30 53.44 30"/><polygon points="52.8 46 52.72 48 54.74 48 54.81 46 52.8 46"/><polygon points="53.44 30 55.41 30 55.48 28 53.52 28 53.44 30"/><polygon points="19.2 46 17.18 46 17.26 48 19.28 48 19.2 46"/><polygon points="18.56 30 18.48 28 16.52 28 16.59 30 18.56 30"/></g></svg>