<svg id="图标_1" data-name="图标 1" xmlns="http://www.w3.org/2000/svg" viewBox="0 0 72 72"><defs><style>.cls-1{fill:none;}</style></defs><title>1</title><g id="饮品"><rect class="cls-1" x="14" y="20" width="4" height="2"/><polygon class="cls-1" points="28.09 70 50 70 52 34 38.33 34 28.09 70"/><polygon class="cls-1" points="36.86 32 39.15 24 20 24 20 32 36.86 32"/><polygon class="cls-1" points="20 34 22 70 26.01 70 36.29 34 20 34"/><polygon class="cls-1" points="52 32 52 24 41.17 24 38.9 32 52 32"/><rect class="cls-1" x="54" y="20" width="4" height="2"/><polygon class="cls-1" points="42.31 20 41.74 22 52 22 52 20 42.31 20"/><polygon class="cls-1" points="20 20 20 22 39.72 22 40.29 20 20 20"/><polygon points="40.29 20 39.72 22 41.74 22 42.31 20 40.29 20"/><polygon points="47.43 2 59 2 59 0 48 0 46 0 40.86 18 42.88 18 47.43 2"/><path d="M52,32H38.9l2.28-8h-2l-2.28,8H20V24H18V34l2,38H52l2-38V24H52ZM22,70,20,34H36.29L26,70Zm28,0H28.09L38.33,34H52Z"/><path d="M60,18H12v6H60Zm-2,4H14V20H58Z"/></g></svg>