<svg id="图标_1" data-name="图标 1" xmlns="http://www.w3.org/2000/svg" viewBox="0 0 72 72"><title>1</title><g id="医务室"><path d="M40,32V0H8V72H64V32Zm-2,0V70H30V64H18v6H10V2H38ZM62,70H54V64H48v6H40V34H62Z"/><rect x="18" y="48" width="12" height="2"/><rect x="48" y="52" width="6" height="2"/><rect x="48" y="46" width="6" height="2"/><rect x="48" y="40" width="6" height="2"/><rect x="18" y="42" width="12" height="2"/><rect x="18" y="36" width="12" height="2"/><rect x="18" y="30" width="12" height="2"/><rect x="18" y="24" width="12" height="2"/><polygon points="23 17 25 17 25 12 30 12 30 10 25 10 25 5 23 5 23 10 18 10 18 12 23 12 23 17"/></g></svg>