<svg id="图标_1" data-name="图标 1" xmlns="http://www.w3.org/2000/svg" viewBox="0 0 72 72"><title>1</title><g id="游泳馆"><path d="M36.5,4.52A31.57,31.57,0,0,1,52.37,8.78L54,7.12a34,34,0,0,0-35.76.44L19.91,9.2A31.58,31.58,0,0,1,36.5,4.52Z"/><path d="M36.5,68a31.57,31.57,0,0,1-16.93-4.9l-1.64,1.64a34,34,0,0,0,36.46.44l-1.65-1.65A31.58,31.58,0,0,1,36.5,68Z"/><path d="M4.77,36.25a31.58,31.58,0,0,1,5.34-17.62L8.48,17a34,34,0,0,0-.23,38.17l1.64-1.64A31.57,31.57,0,0,1,4.77,36.25Z"/><path d="M68.23,36.25a31.58,31.58,0,0,1-5.57,18l1.63,1.63A34,34,0,0,0,64,16.33L62.42,18A31.58,31.58,0,0,1,68.23,36.25Z"/><path d="M43.9,17.25l1.74-1.74a22.51,22.51,0,0,0-19,.37l1.7,1.7a20.25,20.25,0,0,1,15.6-.33Z"/><path d="M18.38,26.9l-1.68-1.68a22.63,22.63,0,0,0-.2,21.69l1.7-1.7a20.26,20.26,0,0,1,.18-18.32Z"/><path d="M55.87,24.52l-1.65,1.65A20.36,20.36,0,0,1,54.43,46l1.65,1.65a22.52,22.52,0,0,0-.21-23.11Z"/><path d="M27.91,54.74l-1.7,1.7A22.49,22.49,0,0,0,46,56.8l-1.71-1.71a20.3,20.3,0,0,1-16.4-.36Z"/><path d="M16.71,25.22l1.68,1.68,1.82,1.82,9.62-9.62L28.3,17.58l-1.7-1.7L19.91,9.2,18.27,7.56,15.4,4.68,5.78,14.3,8.48,17l1.63,1.63ZM15.4,7.88l1,1L18,10.48,24.54,17l1.65,1.65.43.43-2.4,2.4-.85-.85-1.6-1.6-6.43-6.43L13.72,11,13,10.29ZM9,14.3l2.4-2.4.7.7,1.6,1.6,6.42,6.42,1.6,1.6.89.89-2.4,2.4-.64-.64-1.62-1.62-6.49-6.49L9.84,15.16Z"/><path d="M45.64,15.51,43.9,17.25,42,19.1l9.62,9.62,2.56-2.56,1.65-1.65L62.42,18,64,16.33l2-2L56.47,4.68,54,7.12,52.37,8.78ZM62.88,14.3l-.23.23L61,16.14l-6.47,6.47L53,24.22l-1.29,1.29-2.4-2.4,1.47-1.47,1.6-1.6,6.42-6.42,1.6-1.6.13-.13ZM56.47,7.88l2.4,2.4-.2.2L57.07,12.1l-6.44,6.44L49,20.16l-1.35,1.35-2.4-2.4.85-.85,1.66-1.66L54.35,10,56,8.38Z"/><path d="M26.22,56.43l1.7-1.7,1.91-1.91L20.2,43.21l-2,2-1.7,1.7L9.89,53.53,8.25,55.17,5.78,57.64l9.62,9.62,2.53-2.53,1.64-1.64ZM9,57.64,9.6,57l1.61-1.61,6.49-6.49,1.65-1.65.85-.85,2.4,2.4L21.45,50l-1.6,1.6L13.42,58l-1.6,1.6-.43.43ZM15.4,64,13,61.64l.43-.43,1.6-1.6,6.43-6.43,1.6-1.6,1.15-1.15,2.4,2.4-.78.78-1.65,1.65-6.52,6.52L16,63.4Z"/><path d="M62.66,54.21l-6.58-6.58L54.43,46l-2.77-2.77L42,52.83l2.27,2.27L46,56.8l6.72,6.72,1.65,1.65,2.09,2.09,9.62-9.62-1.8-1.8Zm-11-7.79L53.2,48l1.62,1.62L61.29,56l1.59,1.59L60.48,60,59,58.59l-6.41-6.41L51,50.58l-1.76-1.76ZM56.3,63.88l-1.63-1.63-6.56-6.56L46.46,54l-1.21-1.21,2.4-2.4,1.68,1.68,1.62,1.62,6.43,6.43,1.5,1.5-1.19,1.19L56.47,64Z"/></g></svg>