<svg xmlns="http://www.w3.org/2000/svg" viewBox="0 0 58.03 38.39"><defs><style>.cls-1{fill:none;}.cls-2{fill:#020202;}</style></defs><title>yujiabaojian</title><g id="图层_2" data-name="图层 2"><g id="图标_1" data-name="图标 1"><g id="瑜伽保健"><circle class="cls-1" cx="12.02" cy="7" r="5"/><path class="cls-2" d="M12,14A7,7,0,1,0,5,7,7,7,0,0,0,12,14ZM12,2A5,5,0,1,1,7,7,5,5,0,0,1,12,2Z"/><polygon class="cls-2" points="49 27.94 47 25.94 22.99 25.94 12.02 14.97 12.02 14.97 12.02 14.97 0 26.99 1.41 28.41 12.02 17.8 21 26.78 22.16 27.94 46.17 27.94 56.62 38.38 58.03 36.97 49 27.94"/><rect class="cls-2" y="31.94" width="45" height="2"/><rect class="cls-2" x="55.03" y="2.94" width="2" height="14"/><rect class="cls-2" x="49" y="8.94" width="2" height="14"/></g></g></g></svg>