<svg id="图标_1" data-name="图标 1" xmlns="http://www.w3.org/2000/svg" viewBox="0 0 72 72"><title>1</title><g id="雨伞"><path d="M68.5,38.5A32,32,0,0,0,38,6.54V4H36V6.51a32,32,0,0,0-31.5,32c0,.11,0,.22,0,.33s0,.11,0,.17h2q0-.08,0-.17A10,10,0,0,1,25.4,34.45s2.2,0,2.2,0a10,10,0,0,1,17.8,0s2.2,0,2.2,0a10,10,0,0,1,18.89,4.38q0,.08,0,.17h2c0-.06,0-.11,0-.17S68.5,38.61,68.5,38.5ZM56.5,27a12,12,0,0,0-10,5.37,12,12,0,0,0-20,0A12,12,0,0,0,7.4,31.19a30,30,0,0,1,58.2,0A12,12,0,0,0,56.5,27Z"/><path d="M36,57a8,8,0,0,1-16,0H18a10,10,0,0,0,20,0V35H36Z"/></g></svg>