<svg xmlns="http://www.w3.org/2000/svg" viewBox="0 0 51.96 54.93"><defs><style>.cls-1{fill:none;}</style></defs><title>中餐厅</title><g id="图层_2" data-name="图层 2"><g id="图标_1" data-name="图标 1"><g id="中餐厅"><polygon class="cls-1" points="16.75 50.04 13.96 50.04 13.96 51.13 13.96 53.04 35.96 53.04 35.96 51.16 35.96 50.04 33.24 50.04 16.75 50.04"/><path d="M36.14,20H48V30A21,21,0,0,1,37.84,47.93H12.16A21,21,0,0,1,2,30V20H31.07l.54-2H0V30A23.06,23.06,0,0,0,12,50.17v4.76H38V50.17A23.06,23.06,0,0,0,50,30V18H38.14ZM36,51.16V53H14V50H36Z"/><polygon points="33.31 19.99 35.31 17.99 33.67 17.99 33.14 19.99 33.31 19.99"/><polygon points="51.96 2.18 50.54 0.76 33.31 17.99 36.14 17.99 51.96 2.18"/><polygon points="36.14 19.99 38.14 17.99 35.31 17.99 33.31 19.99 36.14 19.99"/><polygon points="36.36 0.52 34.42 0 29.6 17.99 31.67 17.99 36.36 0.52"/><polygon points="33.14 19.99 33.67 17.99 31.6 17.99 31.07 19.99 33.14 19.99"/></g></g></g></svg>