<svg id="图标_1" data-name="图标 1" xmlns="http://www.w3.org/2000/svg" viewBox="0 0 72 72"><defs><style>.cls-1{fill:none;}</style></defs><title>1</title><g id="主食"><rect class="cls-1" x="20" y="16" width="6" height="16"/><rect class="cls-1" x="20" y="6" width="6" height="8"/><rect class="cls-1" x="28" y="6" width="6" height="8"/><polygon class="cls-1" points="32 64 24 64 24 64.83 24 66 32 66 40 66 40 64.83 40 64 32 64"/><path class="cls-1" d="M22,62H42A26,26,0,0,0,57.92,40H6.08A26,26,0,0,0,22,62Z"/><rect class="cls-1" x="28" y="16" width="6" height="16"/><polygon class="cls-1" points="34 34 28 34 26 34 20 34 18 34 6 34 6 38 58 38 58 34 36 34 34 34"/><path d="M68,6V4H6V6H18v8H6v2H18V32H4v6A28,28,0,0,0,22,64.15V68H42V64.15A28,28,0,0,0,60,38V32H36V16H68V14H36V6ZM28,6h6v8H28ZM20,6h6v8H20Zm0,10h6V32H20ZM40,66H24V64H40v2Zm2-4H22A26,26,0,0,1,6.08,40H57.92A26,26,0,0,1,42,62ZM58,34v4H6V34H58ZM28,32V16h6V32Z"/></g></svg>