<svg xmlns="http://www.w3.org/2000/svg" viewBox="0 0 61.06 57.17"><defs><style>.cls-1{fill:none;}.cls-2{fill:#020202;}</style></defs><title>主题酒店</title><g id="图层_2" data-name="图层 2"><g id="图标_1" data-name="图标 1"><g id="主题酒店"><path class="cls-1" d="M29.91,12.57,30,1.76,21.38,8.23a6,6,0,0,1-5.52.87L5.63,5.63,9.1,15.87a6,6,0,0,1-.87,5.52L1.76,30l10.81-.14a6,6,0,0,1,5,2.54l6.24,8.83L27,30.95A6,6,0,0,1,30.95,27l10.32-3.21-8.83-6.24A6,6,0,0,1,29.91,12.57Z"/><path class="cls-2" d="M42.77,23.15,33,16.26a4,4,0,0,1-1.69-3.32L31.49,1A1,1,0,0,0,29.89.2L20.33,7.34a4,4,0,0,1-3.68.58L5.35,4.09A1,1,0,0,0,4.09,5.35l3.83,11.3a4,4,0,0,1-.58,3.68L.2,29.89A1,1,0,0,0,1,31.49l11.93-.15A4,4,0,0,1,16.26,33l6.89,9.74a1,1,0,0,0,1.77-.28l3.54-11.39a4,4,0,0,1,2.63-2.63l11.39-3.54A1,1,0,0,0,42.77,23.15ZM30.95,27A6,6,0,0,0,27,30.95L23.79,41.27l-6.24-8.83a6,6,0,0,0-5-2.54L1.76,30l6.47-8.66a6,6,0,0,0,.87-5.52L5.63,5.63,15.87,9.1a6,6,0,0,0,5.52-.87L30,1.76l-.14,10.81a6,6,0,0,0,2.54,5l8.83,6.24Z"/><rect class="cls-2" x="48.74" y="30.86" width="2" height="30" transform="translate(-17.86 48.6) rotate(-45)"/><rect class="cls-2" x="42.02" y="36.13" width="2" height="23" transform="translate(-21.08 44.37) rotate(-45)"/></g></g></g></svg>